<svg id="Слой_1" data-name="Слой 1" xmlns="http://www.w3.org/2000/svg" viewBox="0 0 100.02 100"><defs><style>.cls-1{fill:#a8dadc;}</style></defs><g id="Слой_2" data-name="Слой 2"><g id="Capa_1" data-name="Capa 1"><g id="shopping-cart"><path class="cls-1" d="M30,80A10,10,0,1,0,40,90,10,10,0,0,0,30,80ZM0,0V10H10L28,48,21,60a17.77,17.77,0,0,0-1,5A10,10,0,0,0,30,75H90V65H32a1.08,1.08,0,0,1-1-1v-.5L35.5,55h37A9.11,9.11,0,0,0,81,50L99,17.5a2.73,2.73,0,0,0,1-2.5,4.72,4.72,0,0,0-4.42-5H21L16.5,0ZM80,80A10,10,0,1,0,90,90,10,10,0,0,0,80,80Z"/></g></g></g></svg>