<svg id="Слой_1" data-name="Слой 1" xmlns="http://www.w3.org/2000/svg" viewBox="0 0 944.46 944.67"><defs><style>.cls-1{fill:#141417;}.cls-2{fill:#a8dadc;}</style></defs><path class="cls-1" d="M484.14,925.12C234,924.92,31.35,722,31.51,471.87A452.92,452.92,0,0,1,307.88,55.06C538.31-42.28,804,65.6,901.36,296s-10.54,496.1-241,593.47A449.8,449.8,0,0,1,484.14,925.12Z" transform="translate(-0.03 0)"/><path class="cls-2" d="M472,39.17c239.16,0,433.05,193.9,433.05,433.05s-193.89,433-433,433S39,711.38,39,472.22s193.88-433,433-433M472,.05C211.18.12-.16,211.77,0,472.63a472.32,472.32,0,0,0,288.2,434.68c240.29,101.52,517.38-11,618.9-251.28s-11-517.38-251.27-618.91A469.44,469.44,0,0,0,472,0Z" transform="translate(-0.03 0)"/><path class="cls-2" d="M211.87,842.89S7.08,743.72,263.51,606.25c0,0-131.31-123.34-29.22-271,0,0-47.87-21.19-58.82-75.93,0,0,47.6,31.5,99,26,57.66-6.18,92.48-50.2,195.14-50.2,108.46,0,163.52,39.43,201.5,53.28,26.21,11.79,71.13-1.25,106.71-22,0,0-1.72,47.14-60.61,68.18,0,0,91.66,141.42-37.81,289.11,0,0,220.21,168.21,8.67,246.42-38.82,14.35-120.23,59.09-246.57,52.3" transform="translate(-0.03 0)"/><circle class="cls-1" cx="361.18" cy="412.59" r="73.32"/><circle class="cls-1" cx="571.75" cy="412.59" r="73.32"/><circle class="cls-2" cx="387.24" cy="414.48" r="33.91"/><circle class="cls-2" cx="547.55" cy="414.48" r="33.91"/><path class="cls-1" d="M460.73,549.34s-55.73-98.17,2.32-98.19S460.73,549.34,460.73,549.34Z" transform="translate(-0.03 0)"/></svg>