<svg id="Слой_1" data-name="Слой 1" xmlns="http://www.w3.org/2000/svg" viewBox="0 0 944.49 944.66"><defs><style>.cls-1{fill:#141417;}.cls-2{fill:#a8dadc;}</style></defs><path class="cls-1" d="M494.11,935C244,934.8,41.32,731.89,41.48,481.75A452.92,452.92,0,0,1,317.85,64.94C548.28-32.4,814,75.48,911.33,305.9S900.79,802,670.37,899.37A449.93,449.93,0,0,1,494.11,935Z" transform="translate(-9.97 -9.88)"/><path class="cls-2" d="M482,49.05c239.16,0,433.05,193.9,433.05,433.05s-193.89,433-433,433S49,721.26,49,482.1s193.88-433,433-433m0-39.17C221.15,10,9.81,221.65,10,482.51A472.33,472.33,0,0,0,298.2,917.19c240.29,101.52,517.38-11,618.9-251.28S906.12,148.53,665.83,47A469.36,469.36,0,0,0,482,9.88Z" transform="translate(-9.97 -9.88)"/><path class="cls-2" d="M186.61,798.92s-1.53-275.7,223.49-428.55c0,0-76.41-71.77-17-157.72,0,0-27.86-12.33-34.23-44.18,0,0,27.7,18.33,57.58,15.13C450,180,470.26,154.39,530,154.39c63.11,0,95.15,22.94,117.25,31,15.25,6.86,41.39-.73,62.09-12.8,0,0-1,27.43-35.27,39.67,0,0,53.34,82.29-22,168.23,0,0,38.28,4.67,47.24,64.75C719.73,582.13,670.22,760,423.47,911.42L267.78,893.85Z" transform="translate(-9.97 -9.88)"/><circle class="cls-1" cx="446.03" cy="260.56" r="50.65"/><circle class="cls-1" cx="592.79" cy="261.03" r="50.18"/><circle class="cls-2" cx="465.4" cy="259.56" r="21.3"/><circle class="cls-2" cx="572.14" cy="260.67" r="21.3"/><path class="cls-1" d="M528.4,363.36s-31.73-55.89,1.32-55.9S528.4,363.36,528.4,363.36Z" transform="translate(-9.97 -9.88)"/></svg>