<?xml version="1.0" encoding="utf-8"?>
<!-- Generator: Adobe Illustrator 24.1.2, SVG Export Plug-In . SVG Version: 6.00 Build 0)  -->
<svg version="1.1" id="Слой_1" xmlns="http://www.w3.org/2000/svg" xmlns:xlink="http://www.w3.org/1999/xlink" x="0px" y="0px"
	 viewBox="0 0 944.5 944.7" style="enable-background:new 0 0 944.5 944.7;" xml:space="preserve">
<style type="text/css">
	.st0{fill:#141417;}
	.st1{fill:#A8DADC;}
</style>
<path class="st0" d="M484.1,925.1C234,924.9,31.3,722,31.5,471.9c0.1-181.8,108.9-345.9,276.4-416.8C538.3-42.3,804,65.6,901.4,296
	s-10.5,496.1-241,593.5C604.6,913.1,544.7,925.2,484.1,925.1z"/>
<path class="st1" d="M472,39.2c239.2,0,433.1,193.9,433.1,433s-193.9,433-433,433S39,711.4,39,472.2S232.9,39.2,472,39.2 M472,0.1
	C211.2,0.1-0.2,211.8,0,472.6c0.1,189.6,113.6,360.8,288.2,434.7c240.3,101.5,517.4-11,618.9-251.3s-11-517.4-251.3-618.9
	C597.7,12.5,535.2-0.1,472,0.1L472,0.1z"/>
<path class="st1" d="M211.9,842.9c0,0-204.8-99.2,51.6-236.6c0,0-131.3-123.3-29.2-271c0,0-47.9-21.2-58.8-75.9c0,0,47.6,31.5,99,26
	c57.7-6.2,92.5-50.2,195.1-50.2c108.5,0,163.5,39.4,201.5,53.3c26.2,11.8,71.1-1.3,106.7-22c0,0-1.7,47.1-60.6,68.2
	c0,0,91.7,141.4-37.8,289.1c0,0,220.2,168.2,8.7,246.4c-38.8,14.4-120.2,59.1-246.6,52.3"/>
<circle class="st0" cx="361.2" cy="412.6" r="73.3"/>
<circle class="st0" cx="571.8" cy="412.6" r="73.3"/>
<circle class="st1" cx="387.3" cy="414.5" r="33.9"/>
<circle class="st1" cx="547.6" cy="414.5" r="33.9"/>
<path class="st0" d="M460.7,549.3c0,0-55.7-98.2,2.3-98.2C521.1,451.1,460.7,549.3,460.7,549.3z"/>
</svg>
