<svg id="Capa_1" data-name="Capa 1" xmlns="http://www.w3.org/2000/svg" viewBox="0 0 72 64.83"><defs><style>.cls-1{fill:#a8dadc;}</style></defs><path class="cls-1" d="M255.81,284.64l26.8-21.8q9.21-10.72,9.2-21.09t-5.1-16.12q-5.1-5.82-14.1-5.82a14.06,14.06,0,0,0-5.09,1,19.64,19.64,0,0,0-4.82,2.72q-2.22,1.71-3.83,3.21a38.49,38.49,0,0,0-3.06,3.19,38.37,38.37,0,0,0-3.05-3.19q-1.6-1.5-3.84-3.21a19.29,19.29,0,0,0-4.82-2.72,14,14,0,0,0-5.08-1q-9,0-14.1,5.82t-5.11,16.12a23.68,23.68,0,0,0,.95,6.47,30.4,30.4,0,0,0,2.15,5.67,41.13,41.13,0,0,0,2.73,4.57c1,1.49,1.76,2.51,2.23,3.07s.84,1,1.1,1.22l26.84,21.89m23.31-26.2-23.31,26.2-24.58-24.89a29.63,29.63,0,0,1-6.27-18,23.38,23.38,0,0,1,.86-6.7,13.81,13.81,0,0,1,2.21-4.62,11,11,0,0,1,3.27-2.79,13.15,13.15,0,0,1,3.78-1.45,19.8,19.8,0,0,1,3.94-.38,10.18,10.18,0,0,1,4.5,1.2,20.15,20.15,0,0,1,4.44,3c1.35,1.2,2.51,2.33,3.47,3.37a32.53,32.53,0,0,1,2.41,2.89c.49.68,1.14,1.81,2,1.81s1.49-1.13,2-1.81a34.35,34.35,0,0,1,2.41-2.89c1-1,2.13-2.17,3.48-3.37a20.15,20.15,0,0,1,4.44-3,10.15,10.15,0,0,1,4.5-1.2,19.88,19.88,0,0,1,3.94.38,13,13,0,0,1,3.77,1.45,10.9,10.9,0,0,1,3.28,2.79,14,14,0,0,1,2.21,4.62,23.74,23.74,0,0,1,.86,6.7Q286.67,249.63,279.12,258.44Z" transform="translate(-219.81 -219.81)"/></svg>