<svg id="Capa_1" data-name="Capa 1" xmlns="http://www.w3.org/2000/svg" viewBox="0 0 190.69 165.44"><defs><style>.cls-1{fill:#a8dadc;}</style></defs><path class="cls-1" d="M189.31,53.87a7.5,7.5,0,0,0-5.38-3.12L32.36,35.69,13,15A7.5,7.5,0,1,0,2,25.25L21.31,45.84v96.48a18.13,18.13,0,0,0,15.86,18,12.57,12.57,0,1,0,22.92.16h70.76a12.41,12.41,0,0,0-1.07,5.07,12.57,12.57,0,0,0,25.14,0,12.42,12.42,0,0,0-1.08-5.07h6.51a7.5,7.5,0,0,0,0-15H39.42a3.12,3.12,0,0,1-3.11-3.11v-8.51H166.69a7.5,7.5,0,0,0,7.29-5.73L190.48,60A7.5,7.5,0,0,0,189.31,53.87Zm-28.52,64.94H36.31V51.16L173.87,64.82Z" transform="translate(0 -12.62)"/></svg>