<svg id="Capa_1" data-name="Capa 1" xmlns="http://www.w3.org/2000/svg" viewBox="0 0 142.86 190.83"><defs><style>.cls-1{fill:#a8dadc;}</style></defs><path class="cls-1" d="M50,45.43a45.43,45.43,0,1,0,89.27-11.88c0-.11-.06-.23-.1-.34a45.42,45.42,0,0,0-87.49,0c0,.11-.07.23-.1.34A45.22,45.22,0,0,0,50,45.43ZM95.41,75.86A30.46,30.46,0,0,1,65,45.43c0-.81,0-1.61.1-2.41h60.65c.06.8.1,1.6.1,2.41A30.46,30.46,0,0,1,95.41,75.86Zm0-60.86a30.41,30.41,0,0,1,24.94,13H70.48A30.4,30.4,0,0,1,95.41,15Z" transform="translate(-23.99)"/><path class="cls-1" d="M164.22,100.16l-1.14-5.75H28.24l-1.55,5.45a71.43,71.43,0,1,0,137.53.3ZM95.41,175.83a56.49,56.49,0,0,1-55.54-66.42H151a56.49,56.49,0,0,1-55.55,66.42Z" transform="translate(-23.99)"/></svg>